<svg xmlns="http://www.w3.org/2000/svg" xmlns:xlink="http://www.w3.org/1999/xlink" width="500" zoomAndPan="magnify" viewBox="0 0 375 374.999991" height="500" preserveAspectRatio="xMidYMid meet" version="1.0"><defs><filter x="0%" y="0%" width="100%" height="100%" id="0f4d4fc706"><feColorMatrix values="0 0 0 0 1 0 0 0 0 1 0 0 0 0 1 0 0 0 1 0" color-interpolation-filters="sRGB"/></filter><g/><clipPath id="5f49a9a1dc"><path d="M 5.949219 7.019531 L 368.949219 7.019531 L 368.949219 367.769531 L 5.949219 367.769531 Z M 5.949219 7.019531 " clip-rule="nonzero"/></clipPath><clipPath id="bd42c2efba"><path d="M 20.332031 21.3125 L 354.832031 21.3125 L 354.832031 353.5625 L 20.332031 353.5625 Z M 20.332031 21.3125 " clip-rule="nonzero"/></clipPath><mask id="d8a324d624"><g filter="url(#0f4d4fc706)"><rect x="-37.5" width="450" fill="#000000" y="-37.499999" height="449.999989" fill-opacity="0.149"/></g></mask><clipPath id="28c50b5f7b"><path d="M 52 290 L 246.117188 290 L 246.117188 329.394531 L 52 329.394531 Z M 52 290 " clip-rule="nonzero"/></clipPath><clipPath id="c89f728dd7"><path d="M 232 181 L 246.117188 181 L 246.117188 251 L 232 251 Z M 232 181 " clip-rule="nonzero"/></clipPath><clipPath id="7fa41d80b0"><path d="M 198 218 L 246.117188 218 L 246.117188 294 L 198 294 Z M 198 218 " clip-rule="nonzero"/></clipPath><clipPath id="d370f98cdd"><path d="M 0.867188 148 L 246.117188 148 L 246.117188 329.394531 L 0.867188 329.394531 Z M 0.867188 148 " clip-rule="nonzero"/></clipPath><clipPath id="832db2f119"><rect x="0" width="264" y="0" height="353"/></clipPath></defs><g clip-path="url(#5f49a9a1dc)"><path fill="#ffffff" d="M 343.382812 367.765625 L 31.515625 367.765625 C 17.429688 367.765625 5.949219 356.292969 5.949219 342.210938 L 5.949219 32.578125 C 5.949219 18.496094 17.429688 7.019531 31.515625 7.019531 L 343.382812 7.019531 C 357.472656 7.019531 368.949219 18.496094 368.949219 32.578125 L 368.949219 342.210938 C 368.949219 356.292969 357.472656 367.765625 343.382812 367.765625 " fill-opacity="1" fill-rule="nonzero"/></g><g clip-path="url(#bd42c2efba)"><path fill="#ebffee" d="M 331.269531 353.5625 L 43.890625 353.5625 C 30.910156 353.5625 20.332031 342.996094 20.332031 330.023438 L 20.332031 44.851562 C 20.332031 31.882812 30.910156 21.3125 43.890625 21.3125 L 331.269531 21.3125 C 344.253906 21.3125 354.828125 31.882812 354.828125 44.851562 L 354.828125 330.023438 C 354.828125 342.996094 344.253906 353.5625 331.269531 353.5625 " fill-opacity="1" fill-rule="nonzero"/></g><g mask="url(#d8a324d624)"><g transform="matrix(1, 0, 0, 1, 111, 22)"><g clip-path="url(#832db2f119)"><g clip-path="url(#28c50b5f7b)"><path fill="#2b833a" d="M 231.105469 299.617188 L 231.09375 299.617188 C 226.261719 299.617188 221.183594 299.460938 215.992188 299.175781 C 209.449219 298.808594 203.453125 295.917969 199.089844 291.035156 C 199.042969 290.980469 199 290.917969 198.953125 290.863281 L 73.546875 365.308594 L 52.65625 472.84375 C 52.65625 472.84375 68.824219 486.464844 115.117188 493.683594 L 115.117188 635.792969 C 115.117188 651.714844 128.023438 664.621094 143.949219 664.621094 C 159.863281 664.621094 172.777344 651.714844 172.777344 635.792969 L 172.777344 498.03125 C 174.378906 498.046875 175.953125 498.070312 177.585938 498.070312 C 179.222656 498.070312 180.792969 498.046875 182.390625 498.03125 L 182.390625 635.792969 C 182.390625 651.714844 195.296875 664.621094 211.21875 664.621094 C 227.132812 664.621094 240.050781 651.714844 240.050781 635.792969 L 240.050781 493.683594 C 286.347656 486.460938 302.519531 472.84375 302.519531 472.84375 L 268.183594 296.152344 C 257.222656 298.445312 244.921875 299.59375 231.105469 299.617188 Z M 231.105469 299.617188 " fill-opacity="1" fill-rule="nonzero"/></g><g clip-path="url(#c89f728dd7)"><path fill="#2b833a" d="M 260.453125 247.648438 L 355.542969 191.191406 L 349.65625 181.28125 L 232.914062 250.589844 C 245.003906 250.492188 254.007812 249.191406 260.453125 247.648438 Z M 260.453125 247.648438 " fill-opacity="1" fill-rule="nonzero"/></g><g clip-path="url(#7fa41d80b0)"><path fill="#2b833a" d="M 216.308594 293.417969 C 221.417969 293.707031 226.347656 293.84375 231.09375 293.84375 C 256.082031 293.800781 275.898438 290.011719 291.542969 282.207031 C 291.800781 282.089844 292.066406 281.988281 292.316406 281.855469 C 301.546875 277.089844 309.3125 270.683594 314.746094 262.65625 C 320.207031 254.667969 323.003906 245.140625 322.960938 235.851562 C 322.945312 230.015625 321.90625 224.363281 320.117188 218.929688 L 284.613281 240.007812 C 284.371094 240.539062 284.085938 241.078125 283.710938 241.65625 C 282.394531 243.597656 279.90625 246.078125 275.125 248.558594 C 267.082031 252.78125 252.492188 256.425781 231.097656 256.375 C 227.109375 256.375 222.878906 256.253906 218.414062 256 C 208.082031 255.421875 199.234375 263.332031 198.65625 273.660156 C 198.066406 283.992188 205.976562 292.839844 216.308594 293.417969 Z M 216.308594 293.417969 " fill-opacity="1" fill-rule="nonzero"/></g><g clip-path="url(#d370f98cdd)"><path fill="#2b833a" d="M 47.089844 378.476562 C 47.289062 376.929688 47.515625 375.457031 47.726562 373.9375 L 195.6875 286.097656 C 193.789062 282.503906 192.824219 278.496094 192.886719 274.351562 L 49.917969 359.226562 C 50.320312 356.714844 50.730469 354.230469 51.152344 351.789062 C 52.785156 342.316406 54.550781 333.367188 56.425781 324.949219 C 58.757812 314.488281 61.25 304.792969 63.867188 295.867188 C 63.875 295.84375 63.886719 295.824219 63.894531 295.804688 C 75.859375 255.109375 90.242188 229.894531 102.90625 214.226562 L 79.4375 334.992188 L 194.152344 266.890625 C 197.425781 257.15625 206.605469 250.203125 217.339844 250.203125 C 217.800781 250.203125 218.265625 250.214844 218.734375 250.246094 C 219.820312 250.304688 220.878906 250.335938 221.953125 250.382812 L 255.425781 230.511719 L 249.054688 197.746094 C 252.90625 199.625 256.484375 201.621094 259.75 203.695312 C 266.929688 208.242188 272.605469 213.164062 276.730469 217.859375 L 309.226562 198.566406 C 297.824219 183.390625 280.699219 170.550781 258.992188 161.054688 C 246.335938 155.546875 232.054688 151.28125 216.460938 148.539062 C 216.46875 148.882812 216.5 149.210938 216.5 149.554688 C 216.5 177.8125 199.074219 200.71875 177.582031 200.71875 C 156.082031 200.71875 138.660156 177.8125 138.660156 149.554688 C 138.660156 149.523438 138.664062 149.496094 138.664062 149.46875 C 134.957031 150.234375 132.175781 150.902344 130.691406 151.269531 C 125.386719 152.175781 109.089844 156.417969 90.222656 173.257812 C 69.1875 191.960938 45.421875 225.617188 27.929688 285.238281 C 27.929688 285.242188 27.925781 285.25 27.925781 285.253906 C 25.152344 294.699219 22.535156 304.820312 20.097656 315.628906 C 16.175781 333.042969 12.734375 352.28125 9.925781 373.578125 C 9.800781 374.507812 9.773438 375.433594 9.789062 376.34375 C 9.824219 378.449219 10.199219 380.488281 10.890625 382.394531 L 0.941406 388.300781 L 6.824219 398.21875 L 18.046875 391.554688 C 20.003906 392.867188 22.21875 393.832031 24.640625 394.339844 C 25.105469 394.4375 25.574219 394.535156 26.054688 394.601562 C 26.882812 394.710938 27.707031 394.769531 28.523438 394.769531 C 36.789062 394.769531 44.054688 389.289062 46.417969 381.414062 C 46.703125 380.464844 46.949219 379.496094 47.085938 378.476562 Z M 47.089844 378.476562 " fill-opacity="1" fill-rule="nonzero"/></g><path fill="#2b833a" d="M 191.644531 15.675781 C 193.621094 16.136719 195.574219 16.691406 197.496094 17.34375 C 199.417969 17.996094 201.300781 18.742188 203.152344 19.578125 C 205 20.414062 206.804688 21.339844 208.5625 22.355469 C 210.320312 23.367188 212.023438 24.464844 213.671875 25.648438 C 215.324219 26.828125 216.910156 28.089844 218.4375 29.425781 C 219.964844 30.765625 221.421875 32.171875 222.808594 33.65625 C 224.195312 35.136719 225.507812 36.679688 226.746094 38.289062 C 227.980469 39.898438 229.132812 41.566406 230.207031 43.289062 C 231.277344 45.011719 232.265625 46.785156 233.164062 48.605469 C 234.0625 50.421875 234.867188 52.28125 235.582031 54.183594 C 236.296875 56.082031 236.917969 58.011719 237.445312 59.972656 C 237.96875 61.929688 238.398438 63.914062 238.730469 65.914062 C 239.0625 67.917969 239.292969 69.929688 239.425781 71.957031 C 239.558594 73.980469 239.59375 76.007812 239.527344 78.035156 C 239.460938 80.0625 239.296875 82.082031 239.03125 84.097656 C 238.769531 86.109375 238.40625 88.101562 237.945312 90.078125 C 237.484375 92.054688 236.929688 94.003906 236.277344 95.925781 C 235.625 97.847656 234.882812 99.734375 234.042969 101.582031 C 233.207031 103.429688 232.28125 105.234375 231.265625 106.992188 C 230.253906 108.75 229.152344 110.453125 227.972656 112.105469 C 226.789062 113.753906 225.53125 115.34375 224.191406 116.867188 C 222.855469 118.394531 221.445312 119.851562 219.964844 121.238281 C 218.484375 122.625 216.9375 123.9375 215.328125 125.175781 C 213.71875 126.410156 212.050781 127.566406 210.328125 128.636719 C 208.605469 129.707031 206.835938 130.695312 205.015625 131.59375 C 203.195312 132.488281 201.335938 133.296875 199.433594 134.011719 C 197.535156 134.726562 195.605469 135.347656 193.644531 135.875 C 191.683594 136.398438 189.703125 136.828125 187.703125 137.160156 C 185.699219 137.492188 183.683594 137.722656 181.660156 137.855469 C 179.636719 137.988281 177.609375 138.023438 175.578125 137.957031 C 173.550781 137.890625 171.53125 137.726562 169.519531 137.460938 C 167.507812 137.199219 165.511719 136.835938 163.535156 136.375 C 161.558594 135.914062 159.609375 135.359375 157.6875 134.707031 C 155.765625 134.054688 153.878906 133.3125 152.03125 132.472656 C 150.179688 131.636719 148.378906 130.710938 146.621094 129.699219 C 144.863281 128.683594 143.15625 127.585938 141.507812 126.402344 C 139.859375 125.222656 138.269531 123.960938 136.742188 122.625 C 135.21875 121.289062 133.761719 119.878906 132.371094 118.398438 C 130.984375 116.917969 129.671875 115.371094 128.4375 113.761719 C 127.199219 112.152344 126.046875 110.484375 124.972656 108.761719 C 123.902344 107.039062 122.917969 105.269531 122.019531 103.449219 C 121.121094 101.628906 120.3125 99.769531 119.597656 97.871094 C 118.882812 95.96875 118.261719 94.039062 117.738281 92.082031 C 117.210938 90.121094 116.78125 88.140625 116.449219 86.136719 C 116.121094 84.136719 115.886719 82.121094 115.753906 80.097656 C 115.621094 78.070312 115.585938 76.042969 115.652344 74.015625 C 115.71875 71.988281 115.882812 69.96875 116.148438 67.957031 C 116.414062 65.945312 116.773438 63.949219 117.234375 61.972656 C 117.695312 59.996094 118.253906 58.046875 118.902344 56.125 C 119.554688 54.203125 120.300781 52.316406 121.136719 50.46875 C 121.976562 48.621094 122.898438 46.816406 123.914062 45.058594 C 124.929688 43.300781 126.027344 41.597656 127.207031 39.949219 C 128.390625 38.296875 129.648438 36.710938 130.988281 35.183594 C 132.324219 33.65625 133.734375 32.199219 135.214844 30.8125 C 136.695312 29.425781 138.242188 28.113281 139.851562 26.878906 C 141.460938 25.640625 143.128906 24.488281 144.851562 23.414062 C 146.574219 22.34375 148.347656 21.359375 150.167969 20.460938 C 151.988281 19.5625 153.847656 18.753906 155.746094 18.039062 C 157.644531 17.324219 159.574219 16.703125 161.535156 16.175781 C 163.496094 15.652344 165.476562 15.222656 167.480469 14.890625 C 169.480469 14.5625 171.496094 14.328125 173.519531 14.195312 C 175.546875 14.0625 177.574219 14.027344 179.601562 14.09375 C 181.628906 14.160156 183.652344 14.324219 185.664062 14.589844 C 187.675781 14.855469 189.667969 15.214844 191.644531 15.675781 Z M 191.644531 15.675781 " fill-opacity="1" fill-rule="nonzero"/></g></g></g><g fill="#2b833a" fill-opacity="1"><g transform="translate(50.025254, 204.615017)"><g><path d="M 0.46875 -38.359375 L 0.46875 -47.953125 L 34.171875 -47.953125 L 34.171875 -38.359375 L 22.78125 -38.359375 L 22.78125 0 L 11.859375 0 L 11.859375 -38.359375 Z M 0.46875 -38.359375 "/></g></g></g><g fill="#2b833a" fill-opacity="1"><g transform="translate(84.662026, 204.615017)"><g><path d="M 30.921875 -47.953125 L 30.921875 -38.359375 L 14.421875 -38.359375 L 14.421875 -28.828125 L 30.21875 -28.828125 L 30.21875 -19.234375 L 14.421875 -19.234375 L 14.421875 -9.59375 L 30.921875 -9.59375 L 30.921875 0 L 3.484375 0 L 3.484375 -47.953125 Z M 30.921875 -47.953125 "/></g></g></g><g fill="#2b833a" fill-opacity="1"><g transform="translate(118.368966, 204.615017)"><g><path d="M 27.84375 -47.953125 L 47.203125 0 L 35.453125 0 L 31.90625 -9.59375 L 13.65625 -9.59375 L 10.109375 0 L -1.625 0 L 17.734375 -47.953125 Z M 28.1875 -19.1875 L 22.84375 -33.125 L 22.734375 -33.125 L 17.375 -19.1875 Z M 28.1875 -19.1875 "/></g></g></g><g fill="#2b833a" fill-opacity="1"><g transform="translate(163.931462, 204.615017)"><g><path d="M 29 -9.875 C 30.664062 -9.875 32.285156 -10.125 33.859375 -10.625 C 35.429688 -11.132812 36.582031 -11.625 37.3125 -12.09375 L 38.421875 -12.84375 L 43.078125 -3.546875 C 42.921875 -3.429688 42.707031 -3.273438 42.4375 -3.078125 C 42.164062 -2.890625 41.535156 -2.53125 40.546875 -2 C 39.554688 -1.476562 38.5 -1.023438 37.375 -0.640625 C 36.25 -0.253906 34.773438 0.09375 32.953125 0.40625 C 31.128906 0.71875 29.25 0.875 27.3125 0.875 C 22.863281 0.875 18.640625 -0.21875 14.640625 -2.40625 C 10.648438 -4.601562 7.4375 -7.617188 5 -11.453125 C 2.5625 -15.285156 1.34375 -19.429688 1.34375 -23.890625 C 1.34375 -27.265625 2.054688 -30.5 3.484375 -33.59375 C 4.921875 -36.695312 6.828125 -39.351562 9.203125 -41.5625 C 11.585938 -43.769531 14.367188 -45.53125 17.546875 -46.84375 C 20.722656 -48.164062 23.976562 -48.828125 27.3125 -48.828125 C 30.414062 -48.828125 33.273438 -48.457031 35.890625 -47.71875 C 38.503906 -46.976562 40.351562 -46.242188 41.4375 -45.515625 L 43.078125 -44.40625 L 38.421875 -35.109375 C 38.148438 -35.335938 37.742188 -35.613281 37.203125 -35.9375 C 36.660156 -36.269531 35.570312 -36.707031 33.9375 -37.25 C 32.3125 -37.800781 30.664062 -38.078125 29 -38.078125 C 26.363281 -38.078125 24 -37.648438 21.90625 -36.796875 C 19.820312 -35.941406 18.164062 -34.816406 16.9375 -33.421875 C 15.71875 -32.023438 14.785156 -30.519531 14.140625 -28.90625 C 13.503906 -27.300781 13.1875 -25.664062 13.1875 -24 C 13.1875 -20.363281 14.550781 -17.097656 17.28125 -14.203125 C 20.019531 -11.316406 23.925781 -9.875 29 -9.875 Z M 29 -9.875 "/></g></g></g><g fill="#2b833a" fill-opacity="1"><g transform="translate(207.692358, 204.615017)"><g><path d="M 14.421875 -19.234375 L 14.421875 0 L 3.484375 0 L 3.484375 -47.953125 L 14.421875 -47.953125 L 14.421875 -28.828125 L 29.875 -28.828125 L 29.875 -47.953125 L 40.796875 -47.953125 L 40.796875 0 L 29.875 0 L 29.875 -19.234375 Z M 14.421875 -19.234375 "/></g></g></g><g fill="#2b833a" fill-opacity="1"><g transform="translate(251.976308, 204.615017)"><g><path d="M 30.921875 -47.953125 L 30.921875 -38.359375 L 14.421875 -38.359375 L 14.421875 -28.828125 L 30.21875 -28.828125 L 30.21875 -19.234375 L 14.421875 -19.234375 L 14.421875 -9.59375 L 30.921875 -9.59375 L 30.921875 0 L 3.484375 0 L 3.484375 -47.953125 Z M 30.921875 -47.953125 "/></g></g></g><g fill="#2b833a" fill-opacity="1"><g transform="translate(285.683249, 204.615017)"><g><path d="M 3.484375 -47.953125 L 20.640625 -47.953125 C 25.242188 -47.953125 29 -46.722656 31.90625 -44.265625 C 34.8125 -41.804688 36.265625 -38.289062 36.265625 -33.71875 C 36.265625 -30.1875 35.382812 -27.226562 33.625 -24.84375 C 31.863281 -22.46875 29.472656 -20.796875 26.453125 -19.828125 L 42.953125 0 L 29.0625 0 L 14.421875 -18.953125 L 14.421875 0 L 3.484375 0 Z M 14.421875 -26.671875 L 15.6875 -26.671875 C 16.695312 -26.671875 17.550781 -26.691406 18.25 -26.734375 C 18.945312 -26.773438 19.738281 -26.910156 20.625 -27.140625 C 21.519531 -27.378906 22.238281 -27.707031 22.78125 -28.125 C 23.320312 -28.550781 23.785156 -29.171875 24.171875 -29.984375 C 24.566406 -30.804688 24.765625 -31.796875 24.765625 -32.953125 C 24.765625 -34.117188 24.566406 -35.109375 24.171875 -35.921875 C 23.785156 -36.734375 23.320312 -37.351562 22.78125 -37.78125 C 22.238281 -38.207031 21.519531 -38.535156 20.625 -38.765625 C 19.738281 -39.003906 18.945312 -39.140625 18.25 -39.171875 C 17.550781 -39.210938 16.695312 -39.234375 15.6875 -39.234375 L 14.421875 -39.234375 Z M 14.421875 -26.671875 "/></g></g></g></svg>