<svg xmlns="http://www.w3.org/2000/svg" xmlns:xlink="http://www.w3.org/1999/xlink" width="500" zoomAndPan="magnify" viewBox="0 0 375 374.999991" height="500" preserveAspectRatio="xMidYMid meet" version="1.0"><defs><filter x="0%" y="0%" width="100%" height="100%" id="68c3e471af"><feColorMatrix values="0 0 0 0 1 0 0 0 0 1 0 0 0 0 1 0 0 0 1 0" color-interpolation-filters="sRGB"/></filter><g/><clipPath id="080cb1bb23"><path d="M 5.257812 6.328125 L 369.757812 6.328125 L 369.757812 368.578125 L 5.257812 368.578125 Z M 5.257812 6.328125 " clip-rule="nonzero"/></clipPath><clipPath id="9d1745ee7a"><path d="M 19.691406 20.679688 L 354.941406 20.679688 L 354.941406 354.429688 L 19.691406 354.429688 Z M 19.691406 20.679688 " clip-rule="nonzero"/></clipPath><mask id="bdeda32282"><g filter="url(#68c3e471af)"><rect x="-37.5" width="450" fill="#000000" y="-37.499999" height="449.999989" fill-opacity="0.2275"/></g></mask><clipPath id="ba8117a9dc"><path d="M 0.0351562 0.625 L 199.535156 0.625 L 199.535156 311.875 L 0.0351562 311.875 Z M 0.0351562 0.625 " clip-rule="nonzero"/></clipPath><clipPath id="caca6fc51d"><rect x="0" width="219" y="0" height="313"/></clipPath></defs><g clip-path="url(#080cb1bb23)"><path fill="#ffffff" d="M 344.085938 368.578125 L 30.929688 368.578125 C 16.78125 368.578125 5.257812 357.054688 5.257812 342.914062 L 5.257812 31.992188 C 5.257812 17.851562 16.78125 6.328125 30.929688 6.328125 L 344.085938 6.328125 C 358.230469 6.328125 369.757812 17.851562 369.757812 31.992188 L 369.757812 342.914062 C 369.757812 357.054688 358.230469 368.578125 344.085938 368.578125 " fill-opacity="1" fill-rule="nonzero"/></g><g clip-path="url(#9d1745ee7a)"><path fill="#fffa93" d="M 331.328125 354.429688 L 43.304688 354.429688 C 30.296875 354.429688 19.695312 343.8125 19.695312 330.785156 L 19.695312 44.324219 C 19.695312 31.292969 30.296875 20.679688 43.304688 20.679688 L 331.328125 20.679688 C 344.335938 20.679688 354.9375 31.292969 354.9375 44.324219 L 354.9375 330.785156 C 354.9375 343.8125 344.335938 354.429688 331.328125 354.429688 " fill-opacity="1" fill-rule="nonzero"/></g><g mask="url(#bdeda32282)"><g transform="matrix(1, 0, 0, 1, 156, 42)"><g clip-path="url(#caca6fc51d)"><g clip-path="url(#ba8117a9dc)"><path fill="#948d00" d="M 279.753906 114.472656 L 279.753906 141.257812 C 279.753906 153.566406 269.792969 163.582031 257.550781 163.582031 C 245.308594 163.582031 235.351562 153.566406 235.351562 141.257812 L 235.351562 121.738281 C 235.335938 121.519531 235.222656 121.332031 235.222656 121.109375 C 235.222656 66.980469 192.398438 22.945312 139.757812 22.945312 C 88.332031 22.945312 46.382812 65.003906 44.472656 117.414062 L 44.472656 145.726562 C 44.472656 160.496094 56.425781 172.511719 71.117188 172.511719 C 76.019531 172.511719 79.996094 176.511719 79.996094 181.441406 C 79.996094 186.371094 76.019531 190.367188 71.117188 190.367188 C 52.40625 190.367188 36.441406 178.636719 29.914062 162.132812 C 27.519531 163.023438 24.96875 163.582031 22.273438 163.582031 C 10.03125 163.582031 0.0703125 153.566406 0.0703125 141.261719 L 0.0703125 114.472656 C 0.0703125 102.164062 10.03125 92.148438 22.273438 92.148438 C 23.40625 92.148438 24.496094 92.320312 25.585938 92.484375 C 38.183594 39.847656 84.523438 0.625 139.757812 0.625 C 195.003906 0.625 241.351562 39.859375 253.9375 92.515625 C 255.121094 92.320312 256.3125 92.148438 257.550781 92.148438 C 269.792969 92.148438 279.753906 102.164062 279.753906 114.472656 Z M 212.96875 121.113281 C 212.96875 80.460938 180.1875 47.503906 139.757812 47.503906 C 99.324219 47.503906 66.550781 80.460938 66.550781 121.113281 C 66.550781 161.765625 99.324219 194.722656 139.757812 194.722656 C 180.1875 194.722656 212.96875 161.765625 212.96875 121.113281 Z M 212.636719 217.046875 L 186.570312 217.046875 C 180.769531 217.046875 175.332031 219.894531 172.011719 224.679688 L 153.789062 250.902344 C 146.664062 261.160156 131.527344 261.058594 124.535156 250.707031 L 107.089844 224.871094 C 103.785156 219.976562 98.28125 217.042969 92.398438 217.042969 L 66.804688 217.042969 C 33.839844 217.042969 7.117188 243.914062 7.117188 277.058594 L 7.117188 303.691406 C 7.117188 308.625 11.089844 312.621094 15.996094 312.621094 L 263.441406 312.621094 C 268.347656 312.621094 272.324219 308.621094 272.324219 303.691406 L 272.324219 277.058594 C 272.320312 243.914062 245.601562 217.046875 212.636719 217.046875 Z M 212.636719 217.046875 " fill-opacity="1" fill-rule="nonzero"/></g></g></g></g><g fill="#b2a900" fill-opacity="1"><g transform="translate(82.437362, 202.339251)"><g><path d="M 27.953125 -48.140625 L 47.375 0 L 35.59375 0 L 32.03125 -9.625 L 13.703125 -9.625 L 10.15625 0 L -1.640625 0 L 17.796875 -48.140625 Z M 28.296875 -19.25 L 22.921875 -33.25 L 22.8125 -33.25 L 17.4375 -19.25 Z M 28.296875 -19.25 "/></g></g></g><g fill="#b2a900" fill-opacity="1"><g transform="translate(128.174052, 202.339251)"><g><path d="M 3.5 -48.140625 L 17.4375 -48.140625 C 24.132812 -48.140625 29.851562 -45.851562 34.59375 -41.28125 C 39.34375 -36.707031 41.71875 -30.976562 41.71875 -24.09375 C 41.71875 -17.164062 39.351562 -11.414062 34.625 -6.84375 C 29.894531 -2.28125 24.164062 0 17.4375 0 L 3.5 0 Z M 14.46875 -9.796875 L 16.15625 -9.796875 C 20.164062 -9.796875 23.441406 -11.144531 25.984375 -13.84375 C 28.535156 -16.550781 29.832031 -19.945312 29.875 -24.03125 C 29.875 -28.113281 28.597656 -31.515625 26.046875 -34.234375 C 23.503906 -36.960938 20.207031 -38.328125 16.15625 -38.328125 L 14.46875 -38.328125 Z M 14.46875 -9.796875 "/></g></g></g><g fill="#b2a900" fill-opacity="1"><g transform="translate(171.227183, 202.339251)"><g><path d="M 43.296875 0 L 41.015625 -28.53125 L 40.71875 -28.53125 L 30.859375 -0.296875 L 24.328125 -0.296875 L 14.46875 -28.53125 L 14.171875 -28.53125 L 11.90625 0 L 0.9375 0 L 5.25 -48.140625 L 16.921875 -48.140625 L 27.59375 -20.359375 L 38.265625 -48.140625 L 49.9375 -48.140625 L 54.265625 0 Z M 43.296875 0 "/></g></g></g><g fill="#b2a900" fill-opacity="1"><g transform="translate(226.41455, 202.339251)"><g><path d="M 14.46875 -48.140625 L 14.46875 0 L 3.5 0 L 3.5 -48.140625 Z M 14.46875 -48.140625 "/></g></g></g><g fill="#b2a900" fill-opacity="1"><g transform="translate(244.382518, 202.339251)"><g><path d="M 14.46875 -29.875 L 14.46875 0 L 3.5 0 L 3.5 -48.140625 L 14.46875 -48.140625 L 33.609375 -18.265625 L 33.71875 -18.265625 L 33.71875 -48.140625 L 44.6875 -48.140625 L 44.6875 0 L 33.71875 0 L 14.578125 -29.875 Z M 14.46875 -29.875 "/></g></g></g></svg>