<svg xmlns="http://www.w3.org/2000/svg" xmlns:xlink="http://www.w3.org/1999/xlink" width="500" zoomAndPan="magnify" viewBox="0 0 375 374.999991" height="500" preserveAspectRatio="xMidYMid meet" version="1.0"><defs><filter x="0%" y="0%" width="100%" height="100%" id="c86d055cba"><feColorMatrix values="0 0 0 0 1 0 0 0 0 1 0 0 0 0 1 0 0 0 1 0" color-interpolation-filters="sRGB"/></filter><g/><clipPath id="c6504a4594"><path d="M 4.996094 6.066406 L 370.246094 6.066406 L 370.246094 369.066406 L 4.996094 369.066406 Z M 4.996094 6.066406 " clip-rule="nonzero"/></clipPath><clipPath id="afcceb3bcc"><path d="M 19.449219 20.4375 L 355.449219 20.4375 L 355.449219 354.1875 L 19.449219 354.1875 Z M 19.449219 20.4375 " clip-rule="nonzero"/></clipPath><mask id="7ad5a70f81"><g filter="url(#c86d055cba)"><rect x="-37.5" width="450" fill="#000000" y="-37.499999" height="449.999989" fill-opacity="0.2275"/></g></mask><clipPath id="6b1ed7952f"><path d="M 100 0.207031 L 202.023438 0.207031 L 202.023438 124 L 100 124 Z M 100 0.207031 " clip-rule="nonzero"/></clipPath><clipPath id="25ebffcc3b"><path d="M 0.800781 115 L 202.023438 115 L 202.023438 303.207031 L 0.800781 303.207031 Z M 0.800781 115 " clip-rule="nonzero"/></clipPath><clipPath id="bede291e80"><rect x="0" width="227" y="0" height="332"/></clipPath></defs><g clip-path="url(#c6504a4594)"><path fill="#ffffff" d="M 344.519531 369.066406 L 30.71875 369.066406 C 16.542969 369.066406 4.996094 357.519531 4.996094 343.347656 L 4.996094 31.785156 C 4.996094 17.617188 16.542969 6.070312 30.71875 6.070312 L 344.519531 6.070312 C 358.695312 6.070312 370.246094 17.617188 370.246094 31.785156 L 370.246094 343.347656 C 370.246094 357.519531 358.695312 369.066406 344.519531 369.066406 " fill-opacity="1" fill-rule="nonzero"/></g><g clip-path="url(#afcceb3bcc)"><path fill="#83d6ff" d="M 331.785156 354.1875 L 43.117188 354.1875 C 30.078125 354.1875 19.453125 343.574219 19.453125 330.542969 L 19.453125 44.082031 C 19.453125 31.054688 30.078125 20.4375 43.117188 20.4375 L 331.785156 20.4375 C 344.824219 20.4375 355.449219 31.054688 355.449219 44.082031 L 355.449219 330.542969 C 355.449219 343.574219 344.824219 354.1875 331.785156 354.1875 " fill-opacity="1" fill-rule="nonzero"/></g><g mask="url(#7ad5a70f81)"><g transform="matrix(1, 0, 0, 1, 148, 43)"><g clip-path="url(#bede291e80)"><g clip-path="url(#6b1ed7952f)"><path fill="#104560" d="M 223.621094 61.859375 C 223.621094 63.878906 223.519531 65.894531 223.324219 67.90625 C 223.125 69.914062 222.828125 71.910156 222.433594 73.890625 C 222.039062 75.871094 221.550781 77.828125 220.960938 79.757812 C 220.375 81.691406 219.695312 83.589844 218.921875 85.457031 C 218.148438 87.320312 217.285156 89.144531 216.332031 90.925781 C 215.378906 92.707031 214.339844 94.4375 213.21875 96.117188 C 212.09375 97.792969 210.890625 99.414062 209.609375 100.976562 C 208.328125 102.535156 206.972656 104.03125 205.542969 105.457031 C 204.113281 106.886719 202.617188 108.242188 201.054688 109.523438 C 199.492188 110.800781 197.871094 112.003906 196.1875 113.125 C 194.507812 114.246094 192.777344 115.285156 190.992188 116.238281 C 189.210938 117.1875 187.386719 118.050781 185.519531 118.824219 C 183.648438 119.597656 181.75 120.277344 179.816406 120.863281 C 177.878906 121.449219 175.921875 121.9375 173.9375 122.332031 C 171.957031 122.726562 169.960938 123.023438 167.949219 123.21875 C 165.9375 123.417969 163.917969 123.515625 161.898438 123.515625 C 159.875 123.515625 157.859375 123.417969 155.847656 123.21875 C 153.835938 123.023438 151.839844 122.726562 149.855469 122.332031 C 147.875 121.9375 145.914062 121.449219 143.980469 120.863281 C 142.046875 120.277344 140.144531 119.597656 138.277344 118.824219 C 136.410156 118.050781 134.585938 117.1875 132.800781 116.238281 C 131.019531 115.285156 129.289062 114.246094 127.605469 113.125 C 125.925781 112.003906 124.304688 110.800781 122.742188 109.523438 C 121.179688 108.242188 119.683594 106.886719 118.253906 105.457031 C 116.824219 104.03125 115.46875 102.535156 114.1875 100.976562 C 112.902344 99.414062 111.699219 97.792969 110.578125 96.117188 C 109.453125 94.4375 108.417969 92.707031 107.464844 90.925781 C 106.511719 89.144531 105.648438 87.320312 104.875 85.457031 C 104.101562 83.589844 103.417969 81.691406 102.832031 79.757812 C 102.246094 77.828125 101.753906 75.871094 101.363281 73.890625 C 100.96875 71.910156 100.671875 69.914062 100.472656 67.90625 C 100.273438 65.894531 100.175781 63.878906 100.175781 61.859375 C 100.175781 59.84375 100.273438 57.828125 100.472656 55.816406 C 100.671875 53.808594 100.96875 51.8125 101.363281 49.832031 C 101.753906 47.851562 102.246094 45.894531 102.832031 43.964844 C 103.417969 42.03125 104.101562 40.132812 104.875 38.265625 C 105.648438 36.402344 106.511719 34.578125 107.464844 32.796875 C 108.417969 31.015625 109.453125 29.285156 110.578125 27.605469 C 111.699219 25.929688 112.902344 24.308594 114.1875 22.746094 C 115.46875 21.1875 116.824219 19.691406 118.253906 18.265625 C 119.683594 16.835938 121.179688 15.480469 122.742188 14.199219 C 124.304688 12.917969 125.925781 11.71875 127.605469 10.597656 C 129.289062 9.476562 131.019531 8.4375 132.800781 7.484375 C 134.585938 6.535156 136.410156 5.671875 138.277344 4.898438 C 140.144531 4.125 142.046875 3.445312 143.980469 2.859375 C 145.914062 2.273438 147.875 1.785156 149.855469 1.390625 C 151.839844 0.996094 153.835938 0.699219 155.847656 0.503906 C 157.859375 0.304688 159.875 0.207031 161.898438 0.207031 C 163.917969 0.207031 165.9375 0.304688 167.949219 0.503906 C 169.960938 0.699219 171.957031 0.996094 173.9375 1.390625 C 175.921875 1.785156 177.878906 2.273438 179.816406 2.859375 C 181.75 3.445312 183.648438 4.125 185.519531 4.898438 C 187.386719 5.671875 189.210938 6.535156 190.992188 7.484375 C 192.777344 8.4375 194.507812 9.476562 196.1875 10.597656 C 197.871094 11.71875 199.492188 12.917969 201.054688 14.199219 C 202.617188 15.480469 204.113281 16.835938 205.542969 18.265625 C 206.972656 19.691406 208.328125 21.1875 209.609375 22.746094 C 210.890625 24.308594 212.09375 25.929688 213.21875 27.605469 C 214.339844 29.285156 215.378906 31.015625 216.332031 32.796875 C 217.285156 34.578125 218.148438 36.402344 218.921875 38.265625 C 219.695312 40.132812 220.375 42.03125 220.960938 43.964844 C 221.550781 45.894531 222.039062 47.851562 222.433594 49.832031 C 222.828125 51.8125 223.125 53.808594 223.324219 55.816406 C 223.519531 57.828125 223.621094 59.84375 223.621094 61.859375 Z M 223.621094 61.859375 " fill-opacity="1" fill-rule="nonzero"/></g><g clip-path="url(#25ebffcc3b)"><path fill="#104560" d="M 309.496094 287.125 L 309.496094 242.222656 C 317.402344 238.84375 322.914062 231.351562 322.914062 222.628906 L 322.914062 206.691406 C 322.914062 197.96875 317.402344 190.476562 309.496094 187.097656 L 309.496094 147.644531 C 309.496094 142.933594 306.59375 139.945312 302.59375 139.945312 C 301.585938 139.945312 300.507812 140.132812 299.386719 140.535156 L 265.625 152.609375 C 251.628906 135.117188 232.925781 121.949219 210.824219 115.191406 C 197.925781 127.011719 180.742188 134.238281 161.898438 134.238281 C 143.0625 134.238281 125.886719 127.019531 112.988281 115.207031 C 89.945312 122.25 70.585938 136.238281 56.414062 154.84375 L 24.476562 144.125 C 23.40625 143.765625 22.378906 143.597656 21.40625 143.597656 C 17.300781 143.597656 14.300781 146.660156 14.300781 151.433594 L 14.300781 187.097656 C 6.394531 190.476562 0.882812 197.96875 0.882812 206.691406 L 0.882812 222.628906 C 0.882812 231.351562 6.394531 238.84375 14.300781 242.222656 L 14.300781 285.230469 C 14.300781 291.128906 18.898438 297.433594 24.515625 299.246094 L 150.902344 340.035156 C 153.796875 340.972656 157.648438 341.441406 161.472656 341.441406 C 165.070312 341.441406 168.644531 341.023438 171.378906 340.1875 L 299.230469 300.992188 C 304.875 299.261719 309.496094 293.023438 309.496094 287.125 Z M 156.53125 330.339844 C 155.574219 330.1875 154.753906 330.011719 154.203125 329.832031 L 27.8125 289.042969 C 26.621094 288.660156 25.035156 286.484375 25.035156 285.230469 L 25.035156 244.082031 C 37.007812 243.425781 46.503906 234.085938 46.503906 222.628906 L 46.503906 206.691406 C 46.503906 195.234375 37.007812 185.894531 25.035156 185.238281 L 25.035156 155.625 L 147.523438 196.734375 C 150.5625 197.757812 153.738281 198.25 156.53125 198.476562 Z M 298.761719 185.238281 C 286.792969 185.894531 277.292969 195.234375 277.292969 206.691406 L 277.292969 222.628906 C 277.292969 234.085938 286.792969 243.425781 298.761719 244.082031 L 298.761719 287.125 C 298.761719 288.300781 297.207031 290.398438 296.082031 290.742188 L 168.230469 329.933594 C 167.949219 330.023438 167.601562 330.09375 167.265625 330.167969 L 167.265625 198.195312 C 170.023438 197.828125 172.617188 197.261719 174.839844 196.46875 L 298.761719 152.148438 Z M 298.761719 185.238281 " fill-opacity="1" fill-rule="nonzero"/></g></g></g></g><g fill="#155d82" fill-opacity="1"><g transform="translate(50.872745, 208.996678)"><g><path d="M 21.265625 -49.09375 C 23.878906 -49.09375 26.429688 -48.710938 28.921875 -47.953125 C 31.421875 -47.191406 33.273438 -46.441406 34.484375 -45.703125 L 36.234375 -44.53125 L 31.796875 -35.765625 C 31.441406 -35.992188 30.953125 -36.289062 30.328125 -36.65625 C 29.703125 -37.03125 28.53125 -37.53125 26.8125 -38.15625 C 25.101562 -38.78125 23.507812 -39.09375 22.03125 -39.09375 C 20.195312 -39.09375 18.78125 -38.703125 17.78125 -37.921875 C 16.789062 -37.140625 16.296875 -36.085938 16.296875 -34.765625 C 16.296875 -34.109375 16.53125 -33.492188 17 -32.921875 C 17.46875 -32.359375 18.265625 -31.753906 19.390625 -31.109375 C 20.523438 -30.472656 21.519531 -29.957031 22.375 -29.5625 C 23.238281 -29.175781 24.566406 -28.59375 26.359375 -27.8125 C 29.472656 -26.488281 32.128906 -24.6875 34.328125 -22.40625 C 36.535156 -20.132812 37.640625 -17.554688 37.640625 -14.671875 C 37.640625 -11.898438 37.140625 -9.484375 36.140625 -7.421875 C 35.148438 -5.359375 33.785156 -3.738281 32.046875 -2.5625 C 30.316406 -1.394531 28.398438 -0.53125 26.296875 0.03125 C 24.191406 0.59375 21.910156 0.875 19.453125 0.875 C 17.347656 0.875 15.285156 0.660156 13.265625 0.234375 C 11.242188 -0.191406 9.550781 -0.726562 8.1875 -1.375 C 6.820312 -2.019531 5.59375 -2.648438 4.5 -3.265625 C 3.40625 -3.890625 2.609375 -4.414062 2.109375 -4.84375 L 1.34375 -5.5 L 6.84375 -14.71875 C 7.300781 -14.332031 7.941406 -13.835938 8.765625 -13.234375 C 9.585938 -12.628906 11.039062 -11.820312 13.125 -10.8125 C 15.207031 -9.800781 17.046875 -9.296875 18.640625 -9.296875 C 23.273438 -9.296875 25.59375 -10.875 25.59375 -14.03125 C 25.59375 -14.6875 25.425781 -15.296875 25.09375 -15.859375 C 24.769531 -16.429688 24.1875 -17 23.34375 -17.5625 C 22.507812 -18.125 21.769531 -18.570312 21.125 -18.90625 C 20.476562 -19.238281 19.425781 -19.742188 17.96875 -20.421875 C 16.507812 -21.109375 15.425781 -21.625 14.71875 -21.96875 C 11.800781 -23.414062 9.539062 -25.21875 7.9375 -27.375 C 6.34375 -29.539062 5.546875 -31.867188 5.546875 -34.359375 C 5.546875 -38.679688 7.144531 -42.21875 10.34375 -44.96875 C 13.539062 -47.71875 17.179688 -49.09375 21.265625 -49.09375 Z M 21.265625 -49.09375 "/></g></g></g><g fill="#155d82" fill-opacity="1"><g transform="translate(90.131994, 208.996678)"><g><path d="M 0.46875 -38.5625 L 0.46875 -48.21875 L 34.359375 -48.21875 L 34.359375 -38.5625 L 22.90625 -38.5625 L 22.90625 0 L 11.921875 0 L 11.921875 -38.5625 Z M 0.46875 -38.5625 "/></g></g></g><g fill="#155d82" fill-opacity="1"><g transform="translate(124.951197, 208.996678)"><g><path d="M 40.5625 -48.21875 L 40.5625 -17.125 C 40.5625 -11.195312 38.960938 -6.710938 35.765625 -3.671875 C 32.566406 -0.640625 27.890625 0.875 21.734375 0.875 C 15.578125 0.875 10.898438 -0.640625 7.703125 -3.671875 C 4.515625 -6.710938 2.921875 -11.195312 2.921875 -17.125 L 2.921875 -48.21875 L 13.90625 -48.21875 L 13.90625 -20.34375 C 13.90625 -16.445312 14.519531 -13.738281 15.75 -12.21875 C 16.976562 -10.695312 18.972656 -9.9375 21.734375 -9.9375 C 24.503906 -9.9375 26.5 -10.695312 27.71875 -12.21875 C 28.945312 -13.738281 29.5625 -16.445312 29.5625 -20.34375 L 29.5625 -48.21875 Z M 40.5625 -48.21875 "/></g></g></g><g fill="#155d82" fill-opacity="1"><g transform="translate(168.416803, 208.996678)"><g><path d="M 3.5 -48.21875 L 17.46875 -48.21875 C 24.175781 -48.21875 29.90625 -45.925781 34.65625 -41.34375 C 39.40625 -36.769531 41.78125 -31.035156 41.78125 -24.140625 C 41.78125 -17.203125 39.410156 -11.441406 34.671875 -6.859375 C 29.941406 -2.285156 24.207031 0 17.46875 0 L 3.5 0 Z M 14.5 -9.8125 L 16.1875 -9.8125 C 20.195312 -9.8125 23.476562 -11.164062 26.03125 -13.875 C 28.582031 -16.582031 29.878906 -19.984375 29.921875 -24.078125 C 29.921875 -28.171875 28.644531 -31.578125 26.09375 -34.296875 C 23.539062 -37.023438 20.238281 -38.390625 16.1875 -38.390625 L 14.5 -38.390625 Z M 14.5 -9.8125 "/></g></g></g><g fill="#155d82" fill-opacity="1"><g transform="translate(211.531857, 208.996678)"><g><path d="M 31.09375 -48.21875 L 31.09375 -38.5625 L 14.5 -38.5625 L 14.5 -28.984375 L 30.390625 -28.984375 L 30.390625 -19.34375 L 14.5 -19.34375 L 14.5 -9.640625 L 31.09375 -9.640625 L 31.09375 0 L 3.5 0 L 3.5 -48.21875 Z M 31.09375 -48.21875 "/></g></g></g><g fill="#155d82" fill-opacity="1"><g transform="translate(245.416331, 208.996678)"><g><path d="M 14.5 -29.921875 L 14.5 0 L 3.5 0 L 3.5 -48.21875 L 14.5 -48.21875 L 33.65625 -18.296875 L 33.78125 -18.296875 L 33.78125 -48.21875 L 44.765625 -48.21875 L 44.765625 0 L 33.78125 0 L 14.609375 -29.921875 Z M 14.5 -29.921875 "/></g></g></g><g fill="#155d82" fill-opacity="1"><g transform="translate(293.672501, 208.996678)"><g><path d="M 0.46875 -38.5625 L 0.46875 -48.21875 L 34.359375 -48.21875 L 34.359375 -38.5625 L 22.90625 -38.5625 L 22.90625 0 L 11.921875 0 L 11.921875 -38.5625 Z M 0.46875 -38.5625 "/></g></g></g></svg>